<?xml version="1.0" standalone="no"?>
<!DOCTYPE svg PUBLIC "-//W3C//DTD SVG 1.1//EN" "http://www.w3.org/Graphics/SVG/1.1/DTD/svg11.dtd">
<svg width="180px" height="180px" version="1.1" xmlns="http://www.w3.org/2000/svg" xmlns:xlink="http://www.w3.org/1999/xlink" xml:space="preserve" style="fill-rule:evenodd;clip-rule:evenodd;stroke-linejoin:round;stroke-miterlimit:1.41421;">
    <g id="svg2">
        <g id="g12">
            <path id="path14" d="M87.4382,7.22404L10.0151,34.4707L22.2492,135.909L87.5203,171.783L153.128,135.423L165.358,33.9885Z" style="fill:rgb(179,179,179);fill-rule:nonzero;"/>
            <path id="path16" d="M157.636,39.8506L87.2573,15.8513L87.2573,163.212L146.238,130.57Z" style="fill:rgb(175,43,45);fill-rule:nonzero;"/>
            <path id="path18" d="M18.7031,40.2842L29.1866,131.003L87.2567,163.212L87.2567,15.8484Z" style="fill:rgb(223,46,49);fill-rule:nonzero;"/>
            <path id="path20" d="M103.571,89.1461L87.3856,55.3471L73.1374,89.1461ZM109.741,103.358L66.8388,103.358L57.2409,127.365L39.3875,127.695L87.2579,21.2023L136.797,127.695L120.249,127.695Z" style="fill:rgb(242,242,242);fill-rule:nonzero;"/>
            <path id="path22" d="M87.2573,21.2023L87.3851,55.3471L103.553,89.1721L87.2937,89.1721L87.2573,103.336L109.74,103.358L120.249,127.699L137.331,128.016Z" style="fill:rgb(179,179,179);fill-rule:nonzero;"/>
        </g>
    </g>
</svg>
